<svg width="2147" height="1139" viewBox="0 0 2147 1139" fill="none" xmlns="http://www.w3.org/2000/svg">
<path d="M2141 0H221V1135H2141V0Z" fill="#EC8628"/>
<path d="M4.00009 982.398C4.00009 982.398 4.00009 196.049 4.00009 59C961.306 1093.33 2140 991.85 2140 991.85L1014.45 995L4.00009 982.398Z" fill="url(#paint0_linear_1730_10560)"/>
<path d="M2.21729e-05 1125.3C2.21729e-05 1125.3 4.44976 503.459 4.44976 398C1018.99 965.296 2147 1132.58 2147 1132.58L1015.65 1135L2.21729e-05 1125.3Z" fill="url(#paint1_linear_1730_10560)"/>
<path d="M4.32624 1133C4.32624 1133 -2.34941 906.948 3.21364 832C497.212 1071.35 1908 1130.58 1908 1130.58L776.477 1133H4.32624Z" fill="url(#paint2_linear_1730_10560)"/>
<path d="M594 1133C594 1133 1047.79 1084 2140 589V1133H594Z" fill="url(#paint3_linear_1730_10560)" fill-opacity="0.2"/>
<defs>
<linearGradient id="paint0_linear_1730_10560" x1="1072" y1="37.2324" x2="847.936" y2="715.197" gradientUnits="userSpaceOnUse">
<stop stop-color="#D9BA9E"/>
<stop offset="1" stop-color="#EC8628"/>
</linearGradient>
<linearGradient id="paint1_linear_1730_10560" x1="1073.5" y1="398" x2="967.371" y2="856.126" gradientUnits="userSpaceOnUse">
<stop stop-color="#FFD484"/>
<stop offset="1" stop-color="#EC8628"/>
</linearGradient>
<linearGradient id="paint2_linear_1730_10560" x1="37.1483" y1="1310.7" x2="22.0471" y2="872.575" gradientUnits="userSpaceOnUse">
<stop stop-color="#EC8628"/>
<stop offset="1" stop-color="#F1953F"/>
</linearGradient>
<linearGradient id="paint3_linear_1730_10560" x1="1323.62" y1="1089.5" x2="1114.13" y2="655.883" gradientUnits="userSpaceOnUse">
<stop stop-color="#EC8628"/>
<stop offset="1" stop-color="#FEE8D5"/>
</linearGradient>
</defs>
</svg>
