<svg xmlns="http://www.w3.org/2000/svg" xmlns:xlink="http://www.w3.org/1999/xlink" viewBox="0 0 520.67 549.84"><defs><style>.cls-1,.cls-2,.cls-3,.cls-4,.cls-5,.cls-6{stroke:#000;stroke-miterlimit:10;}.cls-1{fill:url(#linear-gradient);}.cls-2{fill:url(#linear-gradient-2);}.cls-3{fill:url(#linear-gradient-3);}.cls-4{fill:url(#linear-gradient-4);}.cls-5{fill:url(#linear-gradient-5);}.cls-6{fill:url(#linear-gradient-6);}</style><linearGradient id="linear-gradient" x1="104.21" y1="110.04" x2="497.28" y2="388.87" gradientUnits="userSpaceOnUse"><stop offset="0" stop-color="#fff" stop-opacity="0.1"/><stop offset="1" stop-opacity="0.1"/></linearGradient><linearGradient id="linear-gradient-2" x1="352.49" y1="89.91" x2="520.17" y2="89.91" xlink:href="#linear-gradient"/><linearGradient id="linear-gradient-3" x1="49.67" y1="187.83" x2="114.67" y2="187.83" xlink:href="#linear-gradient"/><linearGradient id="linear-gradient-4" x1="287.37" y1="469.78" x2="309.97" y2="537.64" gradientUnits="userSpaceOnUse"><stop offset="0.1" stop-color="#f8f8f8" stop-opacity="0.1"/><stop offset="0.17" stop-opacity="0.1"/><stop offset="0.28" stop-opacity="0.1"/></linearGradient><linearGradient id="linear-gradient-5" x1="90.28" y1="351.83" x2="386.52" y2="351.83" xlink:href="#linear-gradient"/><linearGradient id="linear-gradient-6" x1="98.95" y1="505.33" x2="326.67" y2="505.33" xlink:href="#linear-gradient"/></defs><g id="Layer_2" data-name="Layer 2"><g id="Layer_1-2" data-name="Layer 1"><path class="cls-1" d="M376.63,391.16a28.44,28.44,0,0,0,5-9.83c7.59-25.29,4-46,4-46-3.92,3.44-67,30.57-68,31,31-80-7-128-7-128-92,2-196-31-196-31a323.75,323.75,0,0,1-6,52.15s-56-19.15-107-86.15c-20.36-26.75,230-82,318-52,0,0,77,25,115,88,0,0,28,42,43,78S475.57,383,376.63,391.16Z"/><path class="cls-2" d="M358.67,139.33s69-9,92-32,6-76-42-60-3,32-3,32-24,10-41-4-22-58,24-69,94-10,125,35-59,77-59,77-39,14-43,61C411.67,179.33,377.67,147.33,358.67,139.33Z"/><path class="cls-3" d="M114.67,207.33s-31-12-65-39"/><path class="cls-4" d="M254.67,497.33s9-18,29-20,46.23-5.56,46.23-5.56-20.12,11.56-20.23,20.56c0,3,.89,4.23,2,6"/><path class="cls-5" d="M267.5,463.34c39.82,9,62.41,8.42,62.41,8.42s-37.24,3.57-47.24,5.57a48.26,48.26,0,0,0-16,6c-5-9,8-39,8-39s52-7,82-44c0,0,12,.63,19.95-9.17h0a28.44,28.44,0,0,0,5-9.83c7.59-25.29,4-46,4-46-3.92,3.44-67,30.57-68,31,31-80-7-128-7-128-92,2-196-31-196-31a323.75,323.75,0,0,1-6,52.15c-11.67,60.78-18,115.85-18,115.85-7,31,81,66,81,66a136,136,0,0,1-3,51s55.53,2.87,86,4c0,0,1-3.56,11-11.78"/><path class="cls-6" d="M152.67,479.33c-1,1.84-32,20-44,39s-11,13-7,24l225,7s-1-43-16-52c-4-2-79,0-126-4l-15.39-1.4-2.61-.6c-3.13-4-8-7-12-10-12.22-9.17-23-11-23-11l41-9s-1.3,20.21-4,31"/></g></g></svg>